<?xml version="1.0" encoding="UTF-8" standalone="no"?>
<svg
   xmlns:dc="http://purl.org/dc/elements/1.1/"
   xmlns:cc="http://creativecommons.org/ns#"
   xmlns:rdf="http://www.w3.org/1999/02/22-rdf-syntax-ns#"
   xmlns:svg="http://www.w3.org/2000/svg"
   xmlns="http://www.w3.org/2000/svg"
   xmlns:sodipodi="http://sodipodi.sourceforge.net/DTD/sodipodi-0.dtd"
   xmlns:inkscape="http://www.inkscape.org/namespaces/inkscape"
   height="39.943501"
   id="Layer_1"
   version="1.1"
   viewBox="0 0 113.0875 39.943501"
   width="113.0875"
   xml:space="preserve"
   inkscape:version="0.91 r13725"
   sodipodi:docname="curly-bracket-down.svg"><metadata
     id="metadata4190"><rdf:RDF><cc:Work
         rdf:about=""><dc:format>image/svg+xml</dc:format><dc:type
           rdf:resource="http://purl.org/dc/dcmitype/StillImage" /><dc:title /></cc:Work></rdf:RDF></metadata><defs
     id="defs4188" /><sodipodi:namedview
     pagecolor="#ffffff"
     bordercolor="#666666"
     borderopacity="1"
     objecttolerance="10"
     gridtolerance="10"
     guidetolerance="10"
     inkscape:pageopacity="0"
     inkscape:pageshadow="2"
     inkscape:window-width="1920"
     inkscape:window-height="1178"
     id="namedview4186"
     showgrid="false"
     fit-margin-top="0"
     fit-margin-left="0"
     fit-margin-right="0"
     fit-margin-bottom="0"
     inkscape:zoom="10.783378"
     inkscape:cx="63.616365"
     inkscape:cy="9.5891587"
     inkscape:window-x="0"
     inkscape:window-y="0"
     inkscape:window-maximized="1"
     inkscape:current-layer="Layer_1" /><path
     d="m 52.87225,38.60325 c 0,-9.837 -5.402,-13.99 -10.253,-13.99 -3.874,0 -19.254,-0.272 -23.135,-0.272 -12.74,0 -18.144,-8.314 -18.144,-20.09 l 0,-2.911 7.62,0 0,2.494 c 0,8.178 4.012,11.366 11.49,11.366 3.187,0 17.042,0.13 20.786,0.13 8.866,-0.141 13.299,6.513 14.957,12.749 l 0.282,0 c 1.522,-6.236 6.232,-12.89 15.098,-12.749 3.739,0 16.759,-0.13 20.081,-0.13 7.76,0 12.473,-3.606 12.473,-11.366 l 0,-2.494 7.62,0 0,2.911 c 0,11.499 -4.986,20.09 -18.979,20.09 -3.739,0 -18.843,0.272 -22.581,0.272 -4.293,0 -10.248,4.153 -10.248,13.99 l -7.067,0 z"
     style="fill:#ffffff;stroke:#2f3435;stroke-width:0.681;stroke-miterlimit:10;fill-opacity:1;stroke-dasharray:none"
     id="path4184"
     inkscape:connector-curvature="0" /></svg>